<mxfile host="app.diagrams.net" modified="2024-05-27T19:13:49.747Z" agent="Mozilla/5.0 (X11; Linux x86_64) AppleWebKit/537.36 (KHTML, like Gecko) Chrome/125.0.0.0 Safari/537.36" etag="0BXZkghCz3TZnZnlo6hk" version="24.4.9" type="device">
  <diagram name="Page-1" id="Wq2pZP7hjpcY0OTNW78p">
    <mxGraphModel dx="989" dy="1649" grid="1" gridSize="10" guides="1" tooltips="1" connect="1" arrows="1" fold="1" page="1" pageScale="1" pageWidth="850" pageHeight="1100" math="0" shadow="0">
      <root>
        <mxCell id="0" />
        <mxCell id="1" parent="0" />
        <mxCell id="vKsuXk2wQ1upKSYMbxWD-12" style="edgeStyle=orthogonalEdgeStyle;rounded=0;orthogonalLoop=1;jettySize=auto;html=1;entryX=0.5;entryY=0;entryDx=0;entryDy=0;" edge="1" parent="1" source="vKsuXk2wQ1upKSYMbxWD-1" target="vKsuXk2wQ1upKSYMbxWD-3">
          <mxGeometry relative="1" as="geometry" />
        </mxCell>
        <mxCell id="vKsuXk2wQ1upKSYMbxWD-13" style="edgeStyle=orthogonalEdgeStyle;rounded=0;orthogonalLoop=1;jettySize=auto;html=1;entryX=0.5;entryY=0;entryDx=0;entryDy=0;" edge="1" parent="1" source="vKsuXk2wQ1upKSYMbxWD-1" target="vKsuXk2wQ1upKSYMbxWD-4">
          <mxGeometry relative="1" as="geometry">
            <Array as="points">
              <mxPoint x="425" y="-614" />
              <mxPoint x="625" y="-614" />
            </Array>
          </mxGeometry>
        </mxCell>
        <mxCell id="vKsuXk2wQ1upKSYMbxWD-1" value="{}" style="rounded=1;whiteSpace=wrap;html=1;absoluteArcSize=1;arcSize=14;strokeWidth=2;strokeColor=default;align=center;verticalAlign=middle;fillColor=default;" vertex="1" parent="1">
          <mxGeometry x="390" y="-670" width="70" height="50" as="geometry" />
        </mxCell>
        <mxCell id="vKsuXk2wQ1upKSYMbxWD-14" style="edgeStyle=orthogonalEdgeStyle;rounded=0;orthogonalLoop=1;jettySize=auto;html=1;entryX=0.5;entryY=0;entryDx=0;entryDy=0;" edge="1" parent="1" source="vKsuXk2wQ1upKSYMbxWD-2" target="vKsuXk2wQ1upKSYMbxWD-6">
          <mxGeometry relative="1" as="geometry">
            <Array as="points">
              <mxPoint x="225" y="-540" />
              <mxPoint x="275" y="-540" />
            </Array>
          </mxGeometry>
        </mxCell>
        <mxCell id="vKsuXk2wQ1upKSYMbxWD-15" style="edgeStyle=orthogonalEdgeStyle;rounded=0;orthogonalLoop=1;jettySize=auto;html=1;entryX=0.5;entryY=0;entryDx=0;entryDy=0;" edge="1" parent="1" source="vKsuXk2wQ1upKSYMbxWD-2" target="vKsuXk2wQ1upKSYMbxWD-5">
          <mxGeometry relative="1" as="geometry">
            <Array as="points">
              <mxPoint x="225" y="-540" />
              <mxPoint x="175" y="-540" />
            </Array>
          </mxGeometry>
        </mxCell>
        <mxCell id="vKsuXk2wQ1upKSYMbxWD-2" value="{1}" style="rounded=1;whiteSpace=wrap;html=1;absoluteArcSize=1;arcSize=14;strokeWidth=2;strokeColor=default;align=center;verticalAlign=middle;fillColor=default;" vertex="1" parent="1">
          <mxGeometry x="190" y="-600" width="70" height="50" as="geometry" />
        </mxCell>
        <mxCell id="vKsuXk2wQ1upKSYMbxWD-3" value="{2}" style="rounded=1;whiteSpace=wrap;html=1;absoluteArcSize=1;arcSize=14;strokeWidth=2;strokeColor=default;align=center;verticalAlign=middle;fillColor=default;" vertex="1" parent="1">
          <mxGeometry x="390" y="-600" width="70" height="50" as="geometry" />
        </mxCell>
        <mxCell id="vKsuXk2wQ1upKSYMbxWD-4" value="{3}" style="rounded=1;whiteSpace=wrap;html=1;absoluteArcSize=1;arcSize=14;strokeWidth=2;strokeColor=default;align=center;verticalAlign=middle;fillColor=default;" vertex="1" parent="1">
          <mxGeometry x="590" y="-600" width="70" height="50" as="geometry" />
        </mxCell>
        <mxCell id="vKsuXk2wQ1upKSYMbxWD-5" value="{1,2}" style="rounded=1;whiteSpace=wrap;html=1;absoluteArcSize=1;arcSize=14;strokeWidth=2;strokeColor=default;align=center;verticalAlign=middle;fillColor=default;" vertex="1" parent="1">
          <mxGeometry x="140" y="-530" width="70" height="50" as="geometry" />
        </mxCell>
        <mxCell id="vKsuXk2wQ1upKSYMbxWD-6" value="{1,3}" style="rounded=1;whiteSpace=wrap;html=1;absoluteArcSize=1;arcSize=14;strokeWidth=2;strokeColor=default;align=center;verticalAlign=middle;fillColor=default;" vertex="1" parent="1">
          <mxGeometry x="240" y="-530" width="70" height="50" as="geometry" />
        </mxCell>
        <mxCell id="vKsuXk2wQ1upKSYMbxWD-7" value="{2,1&lt;span style=&quot;background-color: initial;&quot;&gt;}&lt;/span&gt;" style="rounded=1;whiteSpace=wrap;html=1;absoluteArcSize=1;arcSize=14;strokeWidth=2;strokeColor=default;align=center;verticalAlign=middle;fillColor=default;" vertex="1" parent="1">
          <mxGeometry x="340" y="-530" width="70" height="50" as="geometry" />
        </mxCell>
        <mxCell id="vKsuXk2wQ1upKSYMbxWD-8" value="{2,3}" style="rounded=1;whiteSpace=wrap;html=1;absoluteArcSize=1;arcSize=14;strokeWidth=2;strokeColor=default;align=center;verticalAlign=middle;fillColor=default;" vertex="1" parent="1">
          <mxGeometry x="440" y="-530" width="70" height="50" as="geometry" />
        </mxCell>
        <mxCell id="vKsuXk2wQ1upKSYMbxWD-9" value="{3,1}" style="rounded=1;whiteSpace=wrap;html=1;absoluteArcSize=1;arcSize=14;strokeWidth=2;strokeColor=default;align=center;verticalAlign=middle;fillColor=default;" vertex="1" parent="1">
          <mxGeometry x="540" y="-530" width="70" height="50" as="geometry" />
        </mxCell>
        <mxCell id="vKsuXk2wQ1upKSYMbxWD-10" value="{3,2}" style="rounded=1;whiteSpace=wrap;html=1;absoluteArcSize=1;arcSize=14;strokeWidth=2;strokeColor=default;align=center;verticalAlign=middle;fillColor=default;" vertex="1" parent="1">
          <mxGeometry x="640" y="-530" width="70" height="50" as="geometry" />
        </mxCell>
        <mxCell id="vKsuXk2wQ1upKSYMbxWD-11" style="edgeStyle=orthogonalEdgeStyle;rounded=0;orthogonalLoop=1;jettySize=auto;html=1;entryX=0.5;entryY=0;entryDx=0;entryDy=0;" edge="1" parent="1" source="vKsuXk2wQ1upKSYMbxWD-1" target="vKsuXk2wQ1upKSYMbxWD-2">
          <mxGeometry relative="1" as="geometry">
            <Array as="points">
              <mxPoint x="425" y="-614" />
              <mxPoint x="225" y="-614" />
            </Array>
          </mxGeometry>
        </mxCell>
        <mxCell id="vKsuXk2wQ1upKSYMbxWD-16" style="edgeStyle=orthogonalEdgeStyle;rounded=0;orthogonalLoop=1;jettySize=auto;html=1;entryX=0.5;entryY=0;entryDx=0;entryDy=0;" edge="1" parent="1">
          <mxGeometry relative="1" as="geometry">
            <mxPoint x="425" y="-550" as="sourcePoint" />
            <mxPoint x="475" y="-530" as="targetPoint" />
            <Array as="points">
              <mxPoint x="425" y="-540" />
              <mxPoint x="475" y="-540" />
            </Array>
          </mxGeometry>
        </mxCell>
        <mxCell id="vKsuXk2wQ1upKSYMbxWD-17" style="edgeStyle=orthogonalEdgeStyle;rounded=0;orthogonalLoop=1;jettySize=auto;html=1;entryX=0.5;entryY=0;entryDx=0;entryDy=0;" edge="1" parent="1">
          <mxGeometry relative="1" as="geometry">
            <mxPoint x="425" y="-550" as="sourcePoint" />
            <mxPoint x="375" y="-530" as="targetPoint" />
            <Array as="points">
              <mxPoint x="425" y="-540" />
              <mxPoint x="375" y="-540" />
            </Array>
          </mxGeometry>
        </mxCell>
        <mxCell id="vKsuXk2wQ1upKSYMbxWD-18" style="edgeStyle=orthogonalEdgeStyle;rounded=0;orthogonalLoop=1;jettySize=auto;html=1;entryX=0.5;entryY=0;entryDx=0;entryDy=0;" edge="1" parent="1">
          <mxGeometry relative="1" as="geometry">
            <mxPoint x="630" y="-550" as="sourcePoint" />
            <mxPoint x="680" y="-530" as="targetPoint" />
            <Array as="points">
              <mxPoint x="630" y="-540" />
              <mxPoint x="680" y="-540" />
            </Array>
          </mxGeometry>
        </mxCell>
        <mxCell id="vKsuXk2wQ1upKSYMbxWD-19" style="edgeStyle=orthogonalEdgeStyle;rounded=0;orthogonalLoop=1;jettySize=auto;html=1;entryX=0.5;entryY=0;entryDx=0;entryDy=0;" edge="1" parent="1">
          <mxGeometry relative="1" as="geometry">
            <mxPoint x="630" y="-550" as="sourcePoint" />
            <mxPoint x="580" y="-530" as="targetPoint" />
            <Array as="points">
              <mxPoint x="630" y="-540" />
              <mxPoint x="580" y="-540" />
            </Array>
          </mxGeometry>
        </mxCell>
      </root>
    </mxGraphModel>
  </diagram>
</mxfile>
